<svg xmlns="http://www.w3.org/2000/svg" xml:space="preserve" id="LaPlateforme" x="0" y="0" style="enable-background:new 0 0 240 240" version="1.1" viewBox="0 0 240 240"><style>.st0{fill:#f1e9e9}</style><g id="Logo"><path d="M61.6 86.3c-2.2 0-4 1.8-4 4s1.8 4 4 4 4-1.8 4-4c0-2.3-1.8-4-4-4zM73.3 86.3c-2.2.3-3.7 2.4-3.4 4.6.3 1.9 2 3.4 4 3.4h.6c2.2-.3 3.7-2.4 3.4-4.5-.4-2.3-2.4-3.8-4.6-3.5zM87.1 86.3c-1-.2-2.1-.1-3 .5-.9.6-1.5 1.5-1.8 2.5-.6 2.1.8 4.3 3 4.7.3.1.6.1.9.1.7 0 1.5-.2 2.1-.6.9-.6 1.5-1.5 1.8-2.5.2-1 .1-2.1-.5-3-.6-.8-1.5-1.4-2.5-1.7zM189.4 85.6l-28.4.2c-2.4 0-4.4 2-4.4 4.4 0 1.2.5 2.3 1.3 3.1.8.9 1.8 1.3 3 1.3l28.5-.2c2.4 0 4.4-2 4.4-4.4-.1-2.4-2-4.4-4.4-4.4zM61.6 114.1c-2.2 0-4 1.8-4 4s1.8 4 4 4 4-1.8 4-4c0-2.3-1.8-4-4-4zM73.3 114c-2.2.3-3.7 2.4-3.4 4.5.3 2 2 3.4 4 3.4h.6c2.2-.3 3.7-2.4 3.4-4.5-.4-2.3-2.4-3.7-4.6-3.4zM87.1 114.1c-1-.2-2.1-.1-3 .5-.9.6-1.5 1.5-1.8 2.5-.6 2.1.8 4.3 3 4.7.3.1.6.1.9.1.7 0 1.5-.2 2.1-.6.9-.6 1.5-1.5 1.8-2.5.2-1 .1-2.1-.5-3-.6-.9-1.5-1.4-2.5-1.7zM189.4 113.4l-28.4.2c-2.4 0-4.4 2-4.4 4.4 0 1.2.5 2.3 1.3 3.1.8.9 1.8 1.3 3 1.3l28.5-.2c2.4 0 4.4-2 4.4-4.4-.1-2.5-2-4.4-4.4-4.4zM61.6 142.1c-2.2 0-4 1.8-4 4s1.8 4 4 4 4-1.8 4-4-1.8-4-4-4zM76.2 142.9c-.9-.6-1.9-.9-3-.7-1 .1-2 .7-2.6 1.6-.6.9-.9 1.9-.7 3 .2.9.7 1.9 1.6 2.5.7.5 1.5.8 2.4.8h.6c1-.1 2-.7 2.6-1.6.6-.9.9-1.9.7-3-.2-1-.7-2-1.6-2.6zM87.1 142.1c-2.2-.5-4.3.9-4.7 3-.2 1-.1 2.1.5 3 .5.9 1.4 1.5 2.5 1.8.3.1.6.1.9.1.7 0 1.5-.2 2.1-.6.9-.6 1.5-1.5 1.8-2.5.4-2.1-1-4.3-3.1-4.8zM189.4 141.5l-28.4.2c-2.4 0-4.4 2-4.4 4.4 0 1.2.5 2.3 1.3 3.1.8.9 1.8 1.3 3 1.3l28.5-.2c2.4 0 4.4-2 4.4-4.4s-2-4.4-4.4-4.4z" class="st0"/><path d="M225.7 181.3c-.9-1-2.2-1.5-3.5-1.5h-.1c-7.9 0-12.3 5.3-14.8 8.5-.3.3-.5.6-.7.8-2 2.2-2.4 2.4-3.5 2.5-1.4 0-1.7-.3-4-3.1-2.3-2.9-6-7.4-12.4-8.4l-.1-14.3h17.9c1.5 0 2.8-.7 3.8-1.9.9-1 1.5-2.6 1.5-4.1V76.3c0-3.3-2.4-6-5.2-6H47.2c-1.5 0-2.8.7-3.8 1.9-.9 1-1.5 2.6-1.5 4.1v83.5c0 3.3 2.4 6 5.2 6h17.3l.1 15.1c-4.7 1.7-7.6 5.1-9.6 7.6l-.7.7c-2 2.2-2.3 2.5-3.4 2.5-1.4 0-1.7-.2-4-3.1-2.7-3.2-7-8.6-15.1-8.6-2.9 0-5.2 2.7-5.2 6s2.4 6 5.2 6c3.4 0 5.2 2.2 7.3 4.8 2.7 3.3 5.6 6.9 11.8 6.9 5.6 0 8.7-3.5 10.9-5.9.1-.1.2-.3.4-.4l.6-.6c2.4-3 4.1-4.7 7.2-4.8h.1c3.4 0 5.2 2.2 7.3 4.8 2.7 3.3 5.6 6.9 11.8 6.9 5.6 0 8.7-3.5 10.9-5.9.1-.1.2-.3.4-.4l.6-.6c2.4-3 4.1-4.7 7.2-4.8h.1c3.4 0 5.2 2.2 7.3 4.8 2.7 3.3 5.6 6.9 11.8 6.9 5.6 0 8.7-3.5 10.9-5.9.1-.1.2-.3.4-.4l.6-.6c2.4-3 4.1-4.7 7.2-4.8h.1c3.2 0 4.8 1.8 7.3 4.8 2.7 3.3 5.6 6.9 11.7 6.9h.1c5.5 0 8.6-3.5 10.8-5.9.1-.1.2-.3.4-.4l.6-.6c2.4-3 4.1-4.7 7.2-4.8h.1c3.2 0 4.8 1.8 7.3 4.8 2.7 3.3 5.6 6.9 11.8 6.9h.1c5.6 0 8.6-3.5 10.8-5.9.1-.1.2-.3.4-.4l.6-.6c2.1-2.6 4-4.8 7.3-4.8 3 0 5.2-2.7 5.2-5.9-.8-1.8-1.4-3.6-2.6-4.8zm-173.2-99h146.9v15.4H52.5V82.3zm0 27.8h146.9v15.4H52.5v-15.4zm116.8 78.5c-.4.1-.6.3-.8.6-2 2.2-2.3 2.5-3.4 2.5-1.4 0-1.7-.2-4-3.1-2.7-3.2-7-8.6-15.1-8.6-7.9 0-12.3 5.3-14.8 8.5-.3.3-.5.6-.7.8-2 2.2-2.3 2.5-3.4 2.5-1.4 0-1.7-.2-4-3.1-2.7-3.2-7-8.6-15.1-8.6h-.1c-7.9 0-12.3 5.3-14.8 8.5-.3.3-.5.5-.7.8-2 2.2-2.3 2.5-3.4 2.5-1.4 0-1.7-.2-4-3.1-2.1-2.5-5-6.1-9.9-7.8l-.1-15h101.3l.1 16.1c-3.2 1.8-5.4 4.4-7.1 6.5zM52.5 153.8V138h146.9v15.8H52.5zM33.9 57c.8 2.1 2.8 3.5 4.9 3.5.7 0 1.3-.1 1.8-.3h.1c1.3-.5 2.4-1.5 3-2.8.6-1.3.6-2.8.1-4.1l-5-13.4c-.5-1.3-1.5-2.4-2.8-3-1.3-.6-2.8-.6-4.1-.1-1.3.5-2.4 1.5-3 2.8-.6 1.3-.6 2.8-.1 4.1L33.9 57zM31.9 80.4c-.5-1.3-1.5-2.4-2.8-3-1.3-.6-2.8-.6-4.1-.1l-13.3 5c-1.3.5-2.4 1.5-3 2.8-.6 1.3-.6 2.8-.1 4.1.8 2.1 2.8 3.4 4.9 3.4.7 0 1.3-.1 1.8-.3l13.4-5c2.8-1.1 4.1-4.1 3.2-6.9zM11.5 65.5l11.4 5.1c.7.3 1.4.4 2.2.4 2.1 0 4-1.2 4.8-3.1.6-1.3.6-2.8.1-4.1-.5-1.3-1.5-2.4-2.8-2.9l-11.4-5.1c-1.3-.6-2.8-.6-4.1-.1-1.3.5-2.4 1.5-2.9 2.8-.6 1.3-.7 2.7-.2 4 .6 1.3 1.6 2.4 2.9 3z" class="st0"/></g></svg>