<svg xmlns="http://www.w3.org/2000/svg" xml:space="preserve" width="555.347" height="555.347" style="enable-background:new 0 0 555.347 555.347"><path d="M118.656.117c-4.896-.612-9.18 1.224-11.628 4.284-26.316-1.836-50.796 17.137-58.752 46.513-10.404 37.944 23.868 77.724 62.424 75.888 31.212-1.836 57.528-28.152 64.872-57.528 7.956-37.944-21.42-66.097-56.916-69.157zM155.376 189.837c0-4.896-3.06-7.344-6.732-7.956-1.224-6.12-6.12-11.016-13.464-10.404-10.404.612-20.808.612-31.212 1.224-11.628.612-26.316-.612-37.332 4.284-3.672 1.224-5.508 4.284-6.732 6.732-1.224 1.224-1.836 2.448-2.448 4.284-14.688 74.664-14.076 149.94-13.464 225.828 0 26.929-12.852 97.309 11.628 117.504 1.836 1.837 4.284 2.448 6.732 2.448.612 1.225 1.836 3.061 3.672 3.672 11.628 7.956 31.212 4.284 44.064 2.448 7.344-1.224 17.136-1.836 24.48-6.12 6.12 2.448 14.076.612 15.912-6.731 9.792-48.96 1.224-103.429.612-153-1.836-62.425 2.449-123.012 4.284-184.213zM514.009 383.229c.611-50.796-1.836-101.592-25.093-147.492-47.124-93.636-190.943-72.828-273.563-62.424-7.956 1.224-12.24 7.956-11.628 14.076v.612c-16.524 111.996-16.524 230.724-14.688 343.944 0 9.18 7.956 14.076 15.3 14.076a20.424 20.424 0 0 0 7.344 3.06c25.704 3.061 50.796 3.061 76.5 6.12 7.956 1.225 13.464-5.508 14.688-12.239 5.509-1.837 10.404-6.732 8.568-13.465-11.628-43.451-11.628-86.292-8.568-130.968 2.448-32.436 12.853-69.156 9.181-101.592 21.42-4.896 39.779-20.808 57.527 2.448 18.36 23.868 22.645 59.976 26.316 88.74 3.672 28.151 4.896 56.916 5.508 85.68.612 17.136-4.896 41.616 5.508 56.304 2.448 3.672 6.12 4.896 9.181 5.508.611 0 1.224.612 1.836.612 23.868 5.508 53.244 11.016 77.724 6.732 7.344-1.225 11.017-7.956 11.017-14.688 12.237-43.452 6.729-100.98 7.342-145.044zm-80.784 124.237c3.672 1.836 7.344 2.447 11.016 1.224 3.672.612 7.345 0 11.017-1.836.611 1.224 1.224 2.448 2.447 4.284-8.567 0-16.523.611-25.092.611.612-1.836.612-3.06.612-4.283z"/></svg>