<?xml version="1.0" encoding="utf-8"?>
<!-- Generator: Adobe Illustrator 24.2.3, SVG Export Plug-In . SVG Version: 6.00 Build 0)  -->
<svg version="1.1" id="LaPlateforme" xmlns:serif="http://www.serif.com/"
	 xmlns="http://www.w3.org/2000/svg" xmlns:xlink="http://www.w3.org/1999/xlink" x="0px" y="0px" viewBox="0 0 240 240"
	 style="enable-background:new 0 0 240 240;" xml:space="preserve">
<style type="text/css">
	.st0{fill:#F1E9E9;}
</style>
<g id="Logo">
	<path class="st0" d="M61.6,86.3L61.6,86.3c-2.2,0-4,1.8-4,4c0,2.2,1.8,4,4,4c2.2,0,4-1.8,4-4C65.6,88,63.8,86.3,61.6,86.3z"/>
	<path class="st0" d="M73.3,86.3c-2.2,0.3-3.7,2.4-3.4,4.6c0.3,1.9,2,3.4,4,3.4v0h0.6c2.2-0.3,3.7-2.4,3.4-4.5
		C77.5,87.5,75.5,86,73.3,86.3z"/>
	<path class="st0" d="M87.1,86.3c-1-0.2-2.1-0.1-3,0.5c-0.9,0.6-1.5,1.5-1.8,2.5c-0.6,2.1,0.8,4.3,3,4.7c0.3,0.1,0.6,0.1,0.9,0.1
		c0.7,0,1.5-0.2,2.1-0.6c0.9-0.6,1.5-1.5,1.8-2.5c0.2-1,0.1-2.1-0.5-3C89,87.2,88.1,86.6,87.1,86.3z"/>
	<path class="st0" d="M189.4,85.6L161,85.8c-2.4,0-4.4,2-4.4,4.4c0,1.2,0.5,2.3,1.3,3.1c0.8,0.9,1.8,1.3,3,1.3l28.5-0.2
		c2.4,0,4.4-2,4.4-4.4C193.7,87.6,191.8,85.6,189.4,85.6z"/>
	<path class="st0" d="M61.6,114.1c-2.2,0-4,1.8-4,4c0,2.2,1.8,4,4,4c2.2,0,4-1.8,4-4C65.6,115.8,63.8,114.1,61.6,114.1z"/>
	<path class="st0" d="M73.3,114c-2.2,0.3-3.7,2.4-3.4,4.5c0.3,2,2,3.4,4,3.4h0.6c2.2-0.3,3.7-2.4,3.4-4.5
		C77.5,115.1,75.5,113.7,73.3,114z"/>
	<path class="st0" d="M87.1,114.1c-1-0.2-2.1-0.1-3,0.5c-0.9,0.6-1.5,1.5-1.8,2.5c-0.6,2.1,0.8,4.3,3,4.7c0.3,0.1,0.6,0.1,0.9,0.1
		c0.7,0,1.5-0.2,2.1-0.6c0.9-0.6,1.5-1.5,1.8-2.5c0.2-1,0.1-2.1-0.5-3C89,114.9,88.1,114.4,87.1,114.1z"/>
	<path class="st0" d="M189.4,113.4l-28.4,0.2c-2.4,0-4.4,2-4.4,4.4c0,1.2,0.5,2.3,1.3,3.1c0.8,0.9,1.8,1.3,3,1.3l28.5-0.2
		c2.4,0,4.4-2,4.4-4.4C193.7,115.3,191.8,113.4,189.4,113.4z"/>
	<path class="st0" d="M61.6,142.1c-2.2,0-4,1.8-4,4c0,2.2,1.8,4,4,4c2.2,0,4-1.8,4-4C65.6,143.9,63.8,142.1,61.6,142.1z"/>
	<path class="st0" d="M76.2,142.9c-0.9-0.6-1.9-0.9-3-0.7c-1,0.1-2,0.7-2.6,1.6c-0.6,0.9-0.9,1.9-0.7,3c0.2,0.9,0.7,1.9,1.6,2.5v0
		c0.7,0.5,1.5,0.8,2.4,0.8h0.6c1-0.1,2-0.7,2.6-1.6c0.6-0.9,0.9-1.9,0.7-3C77.6,144.5,77.1,143.5,76.2,142.9z"/>
	<path class="st0" d="M87.1,142.1c-2.2-0.5-4.3,0.9-4.7,3c-0.2,1-0.1,2.1,0.5,3c0.5,0.9,1.4,1.5,2.5,1.8c0.3,0.1,0.6,0.1,0.9,0.1
		c0.7,0,1.5-0.2,2.1-0.6c0.9-0.6,1.5-1.5,1.8-2.5C90.6,144.8,89.2,142.6,87.1,142.1z"/>
	<path class="st0" d="M189.4,141.5l-28.4,0.2c-2.4,0-4.4,2-4.4,4.4c0,1.2,0.5,2.3,1.3,3.1c0.8,0.9,1.8,1.3,3,1.3l28.5-0.2
		c2.4,0,4.4-2,4.4-4.4S191.8,141.5,189.4,141.5z"/>
	<path class="st0" d="M225.7,181.3c-0.9-1-2.2-1.5-3.5-1.5h-0.1c-7.9,0-12.3,5.3-14.8,8.5c-0.3,0.3-0.5,0.6-0.7,0.8
		c-2,2.2-2.4,2.4-3.5,2.5c-1.4,0-1.7-0.3-4-3.1c-2.3-2.9-6-7.4-12.4-8.4l-0.1-14.3h17.9c1.5,0,2.8-0.7,3.8-1.9
		c0.9-1,1.5-2.6,1.5-4.1l0-83.5c0-3.3-2.4-6-5.2-6H47.2c-1.5,0-2.8,0.7-3.8,1.9c-0.9,1-1.5,2.6-1.5,4.1v83.5c0,3.3,2.4,6,5.2,6h17.3
		l0.1,15.1c-4.7,1.7-7.6,5.1-9.6,7.6c-0.3,0.3-0.5,0.5-0.7,0.7c-2,2.2-2.3,2.5-3.4,2.5c-1.4,0-1.7-0.2-4-3.1
		c-2.7-3.2-7-8.6-15.1-8.6c-2.9,0-5.2,2.7-5.2,6c0,3.3,2.4,6,5.2,6c3.4,0,5.2,2.2,7.3,4.8c2.7,3.3,5.6,6.9,11.8,6.9
		c5.6,0,8.7-3.5,10.9-5.9c0.1-0.1,0.2-0.3,0.4-0.4l0.6-0.6c2.4-3,4.1-4.7,7.2-4.8h0.1c3.4,0,5.2,2.2,7.3,4.8
		c2.7,3.3,5.6,6.9,11.8,6.9c5.6,0,8.7-3.5,10.9-5.9c0.1-0.1,0.2-0.3,0.4-0.4l0.6-0.6c2.4-3,4.1-4.7,7.2-4.8h0.1
		c3.4,0,5.2,2.2,7.3,4.8c2.7,3.3,5.6,6.9,11.8,6.9c5.6,0,8.7-3.5,10.9-5.9c0.1-0.1,0.2-0.3,0.4-0.4l0.6-0.6c2.4-3,4.1-4.7,7.2-4.8
		h0.1c3.2,0,4.8,1.8,7.3,4.8c2.7,3.3,5.6,6.9,11.7,6.9h0.1c5.5,0,8.6-3.5,10.8-5.9c0.1-0.1,0.2-0.3,0.4-0.4l0.6-0.6
		c2.4-3,4.1-4.7,7.2-4.8h0.1c3.2,0,4.8,1.8,7.3,4.8c2.7,3.3,5.6,6.9,11.8,6.9h0.1c5.6,0,8.6-3.5,10.8-5.9c0.1-0.1,0.2-0.3,0.4-0.4
		l0.6-0.6c2.1-2.6,4-4.8,7.3-4.8c3,0,5.2-2.7,5.2-5.9C227.5,184.3,226.9,182.5,225.7,181.3z M52.5,82.3h146.9v15.4H52.5V82.3z
		 M52.5,110.1h146.9v15.4H52.5V110.1z M169.3,188.6c-0.4,0.1-0.6,0.3-0.8,0.6h0c-2,2.2-2.3,2.5-3.4,2.5c-1.4,0-1.7-0.2-4-3.1
		c-2.7-3.2-7-8.6-15.1-8.6H146c-7.9,0-12.3,5.3-14.8,8.5c-0.3,0.3-0.5,0.6-0.7,0.8c-2,2.2-2.3,2.5-3.4,2.5c-1.4,0-1.7-0.2-4-3.1
		c-2.7-3.2-7-8.6-15.1-8.6h-0.1c-7.9,0-12.3,5.3-14.8,8.5c-0.3,0.3-0.5,0.5-0.7,0.8c-2,2.2-2.3,2.5-3.4,2.5c-1.4,0-1.7-0.2-4-3.1
		c-2.1-2.5-5-6.1-9.9-7.8l-0.1-15h101.3l0.1,16.1C173.2,183.9,171,186.5,169.3,188.6z M52.5,153.8V138h146.9v15.8H52.5z"/>
	<path class="st0" d="M33.9,57c0.8,2.1,2.8,3.5,4.9,3.5c0.7,0,1.3-0.1,1.8-0.3h0.1c1.3-0.5,2.4-1.5,3-2.8c0.6-1.3,0.6-2.8,0.1-4.1
		l-5-13.4c-0.5-1.3-1.5-2.4-2.8-3c-1.3-0.6-2.8-0.6-4.1-0.1c-1.3,0.5-2.4,1.5-3,2.8c-0.6,1.3-0.6,2.8-0.1,4.1L33.9,57z"/>
	<path class="st0" d="M31.9,80.4c-0.5-1.3-1.5-2.4-2.8-3c-1.3-0.6-2.8-0.6-4.1-0.1l-13.3,5c-1.3,0.5-2.4,1.5-3,2.8
		c-0.6,1.3-0.6,2.8-0.1,4.1c0.8,2.1,2.8,3.4,4.9,3.4c0.7,0,1.3-0.1,1.8-0.3c0,0,13.4-5,13.4-5C31.5,86.2,32.8,83.2,31.9,80.4z"/>
	<path class="st0" d="M11.5,65.5l11.4,5.1c0.7,0.3,1.4,0.4,2.2,0.4c2.1,0,4-1.2,4.8-3.1c0.6-1.3,0.6-2.8,0.1-4.1
		c-0.5-1.3-1.5-2.4-2.8-2.9l-11.4-5.1c-1.3-0.6-2.8-0.6-4.1-0.1c-1.3,0.5-2.4,1.5-2.9,2.8c-0.6,1.3-0.7,2.7-0.2,4
		C9.2,63.8,10.2,64.9,11.5,65.5z"/>
</g>
</svg>
