<svg xmlns="http://www.w3.org/2000/svg" xml:space="preserve" style="fill-rule:evenodd;clip-rule:evenodd;stroke-linejoin:round;stroke-miterlimit:2" viewBox="0 0 1000 450"><path d="M436.236 322.811c0 2.944.735 5.298 2.21 7.061 1.474 1.763 3.412 2.643 5.817 2.643 2.465 0 4.375-.821 5.728-2.463 1.351-1.643 2.031-3.974 2.031-6.999 0-3.006-.711-5.354-2.121-7.046-1.415-1.692-3.353-2.539-5.818-2.539-2.467 0-4.392.82-5.774 2.462-1.384 1.644-2.073 3.937-2.073 6.881m-6.322 27.754V308.62h6.534v4.698c.759-1.809 1.978-3.202 3.654-4.187 1.673-.982 3.675-1.475 6.001-1.475 3.791 0 6.865 1.4 9.224 4.197 2.357 2.794 3.536 6.467 3.536 11.019 0 4.791-1.159 8.564-3.476 11.319-2.317 2.758-5.49 4.135-9.524 4.135-2.004 0-3.787-.403-5.34-1.204-1.556-.803-2.914-2.028-4.075-3.674v17.117h-6.534ZM466.884 313.21c.702-1.89 1.628-3.289 2.779-4.194 1.153-.904 2.579-1.36 4.284-1.36.922 0 1.829.11 2.72.333.891.217 1.769.539 2.628.959l-2.342 5.554a6.061 6.061 0 0 0-1.817-.887 7.838 7.838 0 0 0-2.181-.284c-2.163 0-3.717.865-4.658 2.599-.942 1.732-1.413 4.643-1.413 8.727v12.501h-6.533v-28.573h6.533v4.625ZM500.064 322.991c0-2.64-.855-4.878-2.563-6.709-1.71-1.831-3.8-2.746-6.273-2.746-2.452 0-4.538.915-6.259 2.746-1.718 1.831-2.578 4.069-2.578 6.709 0 2.641.86 4.879 2.578 6.709 1.721 1.831 3.807 2.746 6.259 2.746 2.451 0 4.539-.915 6.258-2.746 1.718-1.83 2.578-4.068 2.578-6.709m-24.55-.059c0-2.084.396-4.053 1.191-5.911a15.15 15.15 0 0 1 3.415-4.944 15.39 15.39 0 0 1 5.058-3.276 15.948 15.948 0 0 1 5.99-1.145c2.146 0 4.168.381 6.067 1.145 1.894.761 3.593 1.883 5.1 3.366 1.505 1.464 2.647 3.118 3.433 4.962a14.73 14.73 0 0 1 1.173 5.803c0 2.106-.387 4.077-1.16 5.921a14.473 14.473 0 0 1-3.386 4.903c-1.567 1.503-3.301 2.64-5.209 3.413a15.905 15.905 0 0 1-6.018 1.157c-2.068 0-4.055-.387-5.959-1.157a15.47 15.47 0 0 1-5.089-3.354c-1.503-1.483-2.65-3.146-3.431-4.99-.783-1.844-1.175-3.809-1.175-5.893M514.944 337.158h-6.531V308.62h6.141v4.685c1.301-1.985 2.78-3.435 4.434-4.348 1.653-.913 3.602-1.369 5.847-1.369 2.225 0 4.068.467 5.532 1.4 1.463.933 2.574 2.352 3.338 4.257 1.501-1.965 3.102-3.399 4.797-4.304 1.692-.902 3.624-1.353 5.789-1.353 1.886 0 3.53.346 4.934 1.039a7.644 7.644 0 0 1 3.278 3.023c.361.621.627 1.362.797 2.227.169.86.255 2.095.255 3.699v19.582h-6.531v-14.649c0-3.831-.407-6.35-1.219-7.565-.81-1.214-2.26-1.82-4.344-1.82-2.565 0-4.394.817-5.487 2.452-1.092 1.632-1.638 4.497-1.638 8.586v12.996h-6.601v-14.649c0-3.529-.425-5.976-1.276-7.338-.852-1.364-2.317-2.047-4.399-2.047-1.281 0-2.451.293-3.514.872a6.63 6.63 0 0 0-2.52 2.407c-.402.662-.682 1.474-.84 2.438-.161.962-.242 2.735-.242 5.321v12.996ZM579.353 322.991c0-2.64-.856-4.878-2.564-6.709-1.707-1.831-3.8-2.746-6.273-2.746-2.451 0-4.537.915-6.256 2.746-1.721 1.831-2.579 4.069-2.579 6.709 0 2.641.858 4.879 2.579 6.709 1.719 1.831 3.805 2.746 6.256 2.746 2.454 0 4.54-.915 6.258-2.746 1.719-1.83 2.579-4.068 2.579-6.709m-24.548-.059c0-2.084.394-4.053 1.188-5.911a15.196 15.196 0 0 1 3.415-4.944 15.394 15.394 0 0 1 5.059-3.276 15.955 15.955 0 0 1 5.99-1.145c2.147 0 4.167.381 6.066 1.145 1.895.761 3.596 1.883 5.101 3.366 1.505 1.464 2.647 3.118 3.433 4.962a14.729 14.729 0 0 1 1.172 5.803c0 2.106-.387 4.077-1.157 5.921a14.533 14.533 0 0 1-3.387 4.903c-1.566 1.503-3.3 2.64-5.21 3.413a15.909 15.909 0 0 1-6.018 1.157c-2.067 0-4.056-.387-5.959-1.157a15.474 15.474 0 0 1-5.09-3.354c-1.503-1.483-2.649-3.146-3.43-4.99-.784-1.844-1.173-3.809-1.173-5.893M594.028 308.62v16.066c0 2.768.572 4.752 1.712 5.956 1.142 1.204 2.995 1.804 5.56 1.804 2.564 0 4.417-.6 5.559-1.804 1.139-1.204 1.711-3.188 1.711-5.956V308.62h6.534v14.109c0 5.462-1.092 9.425-3.279 11.894-2.183 2.469-5.673 3.703-10.465 3.703-4.874 0-8.402-1.226-10.587-3.672-2.187-2.45-3.278-6.424-3.278-11.925V308.62h6.533Z" style="fill:#c9c7c7;fill-rule:nonzero"/><path d="m628.537 338.876-14.954-30.256h7.127l6.232 14.358c.2.444.44 1.105.722 1.989.281.883.572 1.937.873 3.16.201-.863.436-1.721.707-2.575.27-.851.596-1.709.979-2.574l6.201-14.358h7.105l-14.992 30.256ZM664.622 322.991c0-2.64-.856-4.878-2.565-6.709-1.708-1.831-3.801-2.746-6.272-2.746-2.453 0-4.539.915-6.258 2.746-1.72 1.831-2.576 4.069-2.576 6.709 0 2.641.856 4.879 2.576 6.709 1.719 1.831 3.805 2.746 6.258 2.746 2.454 0 4.54-.915 6.258-2.746 1.719-1.83 2.579-4.068 2.579-6.709m-24.548-.059c0-2.084.394-4.053 1.188-5.911a15.199 15.199 0 0 1 3.416-4.944 15.382 15.382 0 0 1 5.056-3.276 15.958 15.958 0 0 1 5.992-1.145c2.145 0 4.168.381 6.064 1.145a15.363 15.363 0 0 1 5.101 3.366c1.507 1.464 2.649 3.118 3.433 4.962a14.731 14.731 0 0 1 1.175 5.803c0 2.106-.388 4.077-1.16 5.921-.772 1.846-1.903 3.479-3.386 4.903-1.565 1.503-3.301 2.64-5.209 3.413a15.912 15.912 0 0 1-6.018 1.157 15.77 15.77 0 0 1-5.961-1.157 15.471 15.471 0 0 1-5.087-3.354c-1.506-1.483-2.65-3.146-3.431-4.99-.783-1.844-1.173-3.809-1.173-5.893M673.279 308.62h6.533v28.538h-6.533V308.62Zm-.86-12.338c0-1.102.407-2.055 1.221-2.858.812-.803 1.778-1.204 2.9-1.204 1.164 0 2.132.387 2.905 1.158.772.772 1.157 1.74 1.157 2.904s-.392 2.139-1.175 2.933c-.781.793-1.745 1.189-2.887 1.189-1.122 0-2.088-.407-2.9-1.219-.814-.812-1.221-1.781-1.221-2.903M690.238 313.21c.699-1.89 1.628-3.289 2.779-4.194 1.153-.904 2.579-1.36 4.282-1.36.922 0 1.828.11 2.72.333.891.217 1.769.539 2.629.959l-2.343 5.554a6.066 6.066 0 0 0-1.818-.887c-.651-.189-1.377-.284-2.18-.284-2.164 0-3.715.865-4.659 2.599-.942 1.732-1.41 4.643-1.41 8.727v12.501h-6.533v-28.573h6.533v4.625ZM734.834 319.484c-.262-2.045-1.043-3.607-2.346-4.678-1.302-1.076-3.087-1.613-5.351-1.613-2.146 0-3.868.521-5.171 1.564-1.301 1.045-2.212 2.621-2.735 4.727h15.603Zm6.773 4.401h-22.794c.158 2.66.95 4.735 2.374 6.225 1.421 1.489 3.316 2.233 5.681 2.233 2.104 0 3.858-.438 5.262-1.316 1.401-.88 2.623-2.297 3.668-4.253l5.501 3.056c-1.606 2.861-3.589 4.993-5.954 6.395-2.368 1.401-5.143 2.101-8.334 2.101-4.57 0-8.207-1.393-10.916-4.179-2.704-2.785-4.055-6.504-4.055-11.156 0-4.469 1.397-8.144 4.194-11.02 2.796-2.873 6.392-4.315 10.782-4.315 4.594 0 8.172 1.316 10.74 3.946 2.566 2.629 3.851 6.313 3.851 11.048v1.235Z" style="fill:#c9c7c7;fill-rule:nonzero"/><path d="M744.525 337.158v-22.83h-4.984v-5.708h4.984v-10.795h6.533v10.795h4.986v5.708h-4.986v22.83h-6.533ZM789.909 322.811c0-2.944-.687-5.237-2.058-6.881-1.375-1.642-3.294-2.462-5.758-2.462-2.467 0-4.405.847-5.82 2.539-1.411 1.692-2.119 4.04-2.119 7.046 0 3.025.682 5.356 2.046 6.999 1.362 1.642 3.285 2.463 5.772 2.463 2.363 0 4.28-.885 5.741-2.658 1.465-1.772 2.196-4.122 2.196-7.046m-.181-32.276h6.534v46.623h-6.534v-3.708c-1.164 1.646-2.521 2.869-4.077 3.672-1.553.801-3.334 1.204-5.34 1.204-4.032 0-7.207-1.377-9.524-4.135-2.317-2.755-3.474-6.528-3.474-11.319 0-4.552 1.183-8.225 3.549-11.019 2.368-2.797 5.459-4.197 9.268-4.197 2.328 0 4.317.487 5.974 1.464 1.655.97 2.863 2.372 3.624 4.198v-22.783ZM808.514 304.287l5.712-8.183h6.766l-8.782 8.183h-3.696Zm12.032 15.197c-.26-2.045-1.041-3.607-2.344-4.678-1.302-1.076-3.087-1.613-5.351-1.613-2.144 0-3.869.521-5.169 1.564-1.303 1.045-2.216 2.621-2.737 4.727h15.601Zm6.773 4.401h-22.795c.161 2.66.953 4.735 2.375 6.225 1.423 1.489 3.318 2.233 5.681 2.233 2.104 0 3.857-.438 5.261-1.316 1.402-.88 2.625-2.297 3.668-4.253l5.502 3.056c-1.607 2.861-3.589 4.993-5.955 6.395-2.365 1.401-5.142 2.101-8.329 2.101-4.572 0-8.209-1.393-10.916-4.179-2.709-2.785-4.06-6.504-4.06-11.156 0-4.469 1.4-8.144 4.197-11.02 2.798-2.873 6.39-4.315 10.784-4.315 4.59 0 8.17 1.316 10.736 3.946 2.568 2.629 3.851 6.313 3.851 11.048v1.235Z" style="fill:#c9c7c7;fill-rule:nonzero"/><path d="M829.62 337.158v-22.83h-5.01v-5.708h5.01v-7.631c0-3.791.79-6.593 2.366-8.397 1.575-1.806 4.022-2.711 7.336-2.711a15.91 15.91 0 0 1 4.43.634v5.908a6.995 6.995 0 0 0-1.585-.678 5.948 5.948 0 0 0-1.611-.224c-1.568 0-2.695.482-3.377 1.441-.685.964-1.026 2.586-1.026 4.868v6.79h6.875v5.708h-6.875v22.83h-6.533Z" style="fill:#c9c7c7;fill-rule:nonzero"/><path d="M862.832 319.484c-.26-2.045-1.043-3.607-2.344-4.678-1.303-1.076-3.087-1.613-5.351-1.613-2.146 0-3.869.521-5.171 1.564-1.301 1.045-2.214 2.621-2.736 4.727h15.602Zm6.773 4.401H846.81c.161 2.66.951 4.735 2.374 6.225 1.422 1.489 3.319 2.233 5.682 2.233 2.104 0 3.857-.438 5.261-1.316 1.402-.88 2.625-2.297 3.668-4.253l5.501 3.056c-1.606 2.861-3.588 4.993-5.954 6.395-2.368 1.401-5.142 2.101-8.331 2.101-4.57 0-8.207-1.393-10.916-4.179-2.707-2.785-4.058-6.504-4.058-11.156 0-4.469 1.397-8.144 4.196-11.02 2.797-2.873 6.391-4.315 10.783-4.315 4.592 0 8.172 1.316 10.738 3.946 2.568 2.629 3.851 6.313 3.851 11.048v1.235ZM870.978 337.158V308.62h6.141v4.694c1.305-1.965 2.839-3.4 4.606-4.302 1.764-.902 3.912-1.356 6.44-1.356 2.128 0 3.937.337 5.433 1.008 1.494.673 2.663 1.67 3.505 2.995.502.781.863 1.692 1.083 2.735.22 1.043.332 2.867.332 5.473v17.291h-6.601v-14.644c0-3.75-.455-6.241-1.369-7.473-.911-1.232-2.532-1.848-4.856-1.848-1.525 0-2.883.281-4.077.842-1.193.561-2.13 1.354-2.81 2.375-.482.682-.817 1.56-1.008 2.631-.192 1.074-.286 2.782-.286 5.125v12.992h-6.533ZM922.276 322.811c0-2.944-.688-5.237-2.059-6.881-1.375-1.642-3.294-2.462-5.759-2.462-2.466 0-4.405.847-5.82 2.539-1.41 1.692-2.117 4.04-2.117 7.046 0 3.025.68 5.356 2.045 6.999 1.362 1.642 3.285 2.463 5.771 2.463 2.366 0 4.282-.885 5.743-2.658 1.466-1.772 2.196-4.122 2.196-7.046m-.18-32.276h6.531v46.623h-6.531v-3.708c-1.166 1.646-2.524 2.869-4.08 3.672-1.553.801-3.331 1.204-5.34 1.204-4.031 0-7.206-1.377-9.524-4.135-2.314-2.755-3.474-6.528-3.474-11.319 0-4.552 1.184-8.225 3.549-11.019 2.37-2.797 5.46-4.197 9.269-4.197 2.328 0 4.317.487 5.974 1.464 1.654.97 2.863 2.372 3.626 4.198v-22.783ZM938.747 313.21c.7-1.89 1.626-3.289 2.779-4.194 1.151-.904 2.581-1.36 4.284-1.36.92 0 1.827.11 2.718.333.893.217 1.769.539 2.631.959l-2.345 5.554a6.032 6.032 0 0 0-1.818-.887c-.651-.189-1.377-.284-2.178-.284-2.165 0-3.719.865-4.659 2.599-.941 1.732-1.412 4.643-1.412 8.727v12.501h-6.533v-28.573h6.533v4.625ZM970.174 319.484c-.26-2.045-1.041-3.607-2.344-4.678-1.305-1.076-3.087-1.613-5.351-1.613-2.144 0-3.869.521-5.169 1.564-1.305 1.045-2.216 2.621-2.738 4.727h15.602Zm6.772 4.401h-22.794c.159 2.66.953 4.735 2.374 6.225 1.424 1.489 3.319 2.233 5.682 2.233 2.104 0 3.857-.438 5.261-1.316 1.402-.88 2.625-2.297 3.668-4.253l5.501 3.056c-1.604 2.861-3.589 4.993-5.954 6.395-2.365 1.401-5.142 2.101-8.329 2.101-4.572 0-8.212-1.393-10.916-4.179-2.707-2.785-4.06-6.504-4.06-11.156 0-4.469 1.4-8.144 4.196-11.02 2.797-2.873 6.39-4.315 10.785-4.315 4.59 0 8.17 1.316 10.736 3.946 2.568 2.629 3.85 6.313 3.85 11.048v1.235ZM430.222 356.548h6.533v46.623h-6.533zM461.343 385.497c-.259-2.044-1.04-3.607-2.343-4.678-1.303-1.076-3.087-1.613-5.352-1.613-2.145 0-3.868.521-5.171 1.564-1.3 1.046-2.211 2.621-2.735 4.727h15.601Zm6.773 4.401h-22.794c.161 2.66.953 4.735 2.376 6.225 1.422 1.49 3.316 2.233 5.682 2.233 2.104 0 3.857-.438 5.261-1.316 1.4-.88 2.625-2.297 3.666-4.253l5.501 3.056c-1.604 2.861-3.589 4.993-5.954 6.395-2.366 1.402-5.14 2.101-8.329 2.101-4.572 0-8.21-1.393-10.916-4.178-2.707-2.786-4.06-6.505-4.06-11.157 0-4.469 1.397-8.143 4.196-11.019 2.797-2.874 6.392-4.315 10.785-4.315 4.59 0 8.17 1.315 10.738 3.945 2.565 2.629 3.848 6.313 3.848 11.048v1.235ZM482.969 356.548h6.533v46.623h-6.533zM515.846 389.004c0-2.64-.856-4.878-2.563-6.709-1.71-1.83-3.801-2.746-6.274-2.746-2.451 0-4.539.916-6.258 2.746-1.719 1.831-2.579 4.069-2.579 6.709 0 2.641.86 4.879 2.579 6.71 1.719 1.83 3.807 2.746 6.258 2.746s4.537-.916 6.258-2.746c1.719-1.831 2.579-4.069 2.579-6.71m-24.55-.059c0-2.084.396-4.053 1.188-5.91a15.206 15.206 0 0 1 3.417-4.945 15.394 15.394 0 0 1 5.059-3.276 15.932 15.932 0 0 1 5.99-1.144c2.145 0 4.167.38 6.064 1.144 1.897.761 3.596 1.883 5.103 3.366 1.503 1.464 2.647 3.118 3.43 4.962a14.682 14.682 0 0 1 1.175 5.803c0 2.106-.387 4.077-1.159 5.921a14.467 14.467 0 0 1-3.387 4.903c-1.566 1.503-3.3 2.641-5.208 3.413a15.909 15.909 0 0 1-6.018 1.157c-2.069 0-4.056-.387-5.959-1.157a15.422 15.422 0 0 1-5.09-3.354c-1.503-1.483-2.649-3.146-3.43-4.99-.784-1.844-1.175-3.809-1.175-5.893" style="fill:#c9c7c7;fill-rule:nonzero"/><path d="M544.694 388.824c0-2.944-.689-5.237-2.06-6.881-1.375-1.641-3.294-2.462-5.758-2.462-2.467 0-4.406.847-5.818 2.539-1.413 1.692-2.119 4.04-2.119 7.046 0 3.026.68 5.356 2.044 7 1.364 1.641 3.287 2.462 5.774 2.462 2.343 0 4.253-.891 5.728-2.671 1.472-1.785 2.209-4.126 2.209-7.033m6.353 12.565c0 5.573-1.114 9.501-3.341 11.776-2.229 2.276-5.978 3.413-11.255 3.413-3.93 0-7.07-.825-9.416-2.478-2.35-1.652-3.542-3.85-3.582-6.599l7.019-.028c.099 1.219.672 2.145 1.712 2.783 1.043.638 2.507.96 4.392.96 2.784 0 4.791-.61 6.012-1.831 1.226-1.224 1.844-3.266 1.866-6.128l.059-3.796c-1.164 1.646-2.523 2.872-4.079 3.675-1.554.801-3.332 1.203-5.338 1.203-4.032 0-7.209-1.377-9.524-4.134-2.317-2.755-3.477-6.529-3.477-11.319 0-4.553 1.186-8.226 3.552-11.02 2.368-2.797 5.457-4.196 9.268-4.196 2.326 0 4.317.486 5.972 1.463 1.655.97 2.863 2.372 3.626 4.198v-4.698h6.534v26.756ZM554.939 374.633h6.533v28.538h-6.533v-28.538Zm-.858-12.338c0-1.102.407-2.055 1.219-2.858.812-.803 1.78-1.204 2.902-1.204 1.164 0 2.13.388 2.905 1.158.772.772 1.155 1.74 1.155 2.904 0 1.165-.389 2.139-1.173 2.934-.781.792-1.745 1.188-2.887 1.188-1.122 0-2.09-.407-2.902-1.219-.812-.812-1.219-1.78-1.219-2.903M586.683 382.782a10.234 10.234 0 0 0-3.508-2.531c-1.333-.581-2.775-.873-4.319-.873-2.667 0-4.804.862-6.408 2.587-1.604 1.723-2.407 4.009-2.407 6.857 0 2.968.807 5.298 2.422 6.993 1.613 1.694 3.847 2.541 6.694 2.541 1.587 0 2.999-.297 4.245-.884 1.243-.594 2.334-1.488 3.281-2.691v7.494a15.25 15.25 0 0 1-3.869 1.549 17.985 17.985 0 0 1-4.379.515c-4.473 0-8.119-1.423-10.94-4.269-2.819-2.845-4.227-6.535-4.227-11.066 0-4.59 1.459-8.293 4.379-11.11 2.92-2.814 6.735-4.224 11.451-4.224 1.485 0 2.849.147 4.093.44a13.39 13.39 0 0 1 3.492 1.349v7.323ZM588.23 374.633h6.533v28.538h-6.533v-28.538Zm-.861-12.338c0-1.102.41-2.055 1.221-2.858.812-.803 1.781-1.204 2.903-1.204 1.164 0 2.13.388 2.904 1.158.771.772 1.156 1.74 1.156 2.904 0 1.165-.39 2.139-1.173 2.934-.781.792-1.745 1.188-2.887 1.188-1.122 0-2.091-.407-2.903-1.219-.811-.812-1.221-1.78-1.221-2.903M619.355 385.497c-.262-2.044-1.045-3.607-2.348-4.678-1.303-1.076-3.085-1.613-5.349-1.613-2.146 0-3.869.521-5.171 1.564-1.303 1.046-2.214 2.621-2.735 4.727h15.603Zm6.773 4.401h-22.797c.161 2.66.951 4.735 2.375 6.225 1.423 1.49 3.316 2.233 5.683 2.233 2.104 0 3.855-.438 5.259-1.316 1.404-.88 2.625-2.297 3.668-4.253l5.502 3.056c-1.605 2.861-3.589 4.993-5.955 6.395-2.365 1.402-5.142 2.101-8.331 2.101-4.57 0-8.21-1.393-10.916-4.178-2.704-2.786-4.058-6.505-4.058-11.157 0-4.469 1.398-8.143 4.197-11.019 2.796-2.874 6.392-4.315 10.782-4.315 4.594 0 8.172 1.315 10.74 3.945 2.566 2.629 3.851 6.313 3.851 11.048v1.235ZM627.807 356.548h6.533v46.623h-6.533zM651.712 356.548h6.533v46.623h-6.533zM662.446 374.633h6.533v28.538h-6.533v-28.538Zm-.86-12.338c0-1.102.407-2.055 1.219-2.858.812-.803 1.778-1.204 2.902-1.204 1.162 0 2.13.388 2.903 1.158.772.772 1.159 1.74 1.159 2.904 0 1.165-.392 2.139-1.173 2.934-.783.792-1.745 1.188-2.889 1.188-1.124 0-2.09-.407-2.902-1.219-.812-.812-1.219-1.78-1.219-2.903M679.191 388.824c0 2.907.746 5.248 2.241 7.033 1.491 1.78 3.421 2.671 5.787 2.671 2.466 0 4.376-.821 5.73-2.462 1.351-1.644 2.028-3.974 2.028-7 0-3.006-.706-5.354-2.119-7.046-1.414-1.692-3.353-2.539-5.82-2.539-2.466 0-4.39.821-5.772 2.462-1.384 1.644-2.075 3.937-2.075 6.881m.212-32.276v22.783c.759-1.806 1.98-3.201 3.655-4.187 1.676-.982 3.677-1.474 6.002-1.474 3.792 0 6.866 1.399 9.223 4.196 2.358 2.794 3.536 6.467 3.536 11.02 0 4.79-1.158 8.564-3.475 11.319-2.319 2.757-5.492 4.134-9.523 4.134-2.007 0-3.787-.402-5.343-1.203-1.554-.803-2.911-2.027-4.075-3.673v3.708h-6.533v-46.623h6.533ZM709.841 379.223c.7-1.89 1.627-3.289 2.777-4.194 1.153-.904 2.582-1.359 4.287-1.359.92 0 1.826.11 2.717.332.892.218 1.77.539 2.63.959l-2.344 5.554a6.062 6.062 0 0 0-1.817-.887c-.651-.189-1.378-.283-2.179-.283-2.165 0-3.718.864-4.66 2.598-.94 1.732-1.411 4.643-1.411 8.727v12.501h-6.533v-28.573h6.533v4.625ZM741.268 385.497c-.26-2.044-1.043-3.607-2.343-4.678-1.305-1.076-3.09-1.613-5.352-1.613-2.145 0-3.868.521-5.171 1.564-1.305 1.046-2.216 2.621-2.735 4.727h15.601Zm6.773 4.401h-22.794c.158 2.66.95 4.735 2.374 6.225 1.421 1.49 3.318 2.233 5.682 2.233 2.103 0 3.857-.438 5.259-1.316 1.403-.88 2.627-2.297 3.668-4.253l5.501 3.056c-1.602 2.861-3.587 4.993-5.955 6.395-2.365 1.402-5.142 2.101-8.328 2.101-4.571 0-8.21-1.393-10.917-4.178-2.704-2.786-4.057-6.505-4.057-11.157 0-4.469 1.397-8.143 4.196-11.019 2.795-2.874 6.39-4.315 10.782-4.315 4.592 0 8.173 1.315 10.738 3.945 2.568 2.629 3.851 6.313 3.851 11.048v1.235ZM859.089 172.822c-5.389-36.028-36.902-66.832-86.379-90.016v39.683c39.34 22.319 63.342 50.045 65.837 81.042 1.908 23.743-9.017 46.934-30.146 68.326 36.856-30.867 55.779-64.99 50.688-99.035M82.603 244.18c-3.36-41.81 33.035-81.902 95.022-113.474l18.77-40.282C84.141 132.836 14.649 194.721 23.871 256.379c12.8 85.567 172.876 141.704 371.463 136.159V381.58c-172.721-5.629-306.651-61.806-312.731-137.4M639.579 82.505c0-5.561 2.047-10.362 6.142-14.411 4.095-4.044 8.973-6.066 14.637-6.066 5.862 0 10.745 1.945 14.639 5.84 3.893 3.892 5.84 8.775 5.84 14.637 0 5.866-1.971 10.795-5.917 14.789-3.945 3.996-8.797 5.992-14.562 5.992-5.664 0-10.542-2.047-14.637-6.142-4.095-4.097-6.142-8.975-6.142-14.639M717.882 33.422h33.007v235.722h-33.007zM643.98 125.015h33.007v144.129H643.98zM568.696 147.792c3.543-9.537 8.226-16.589 14.046-21.153 5.82-4.564 13.035-6.85 21.639-6.85 4.654 0 9.235.579 13.739 1.732 4.505 1.151 8.936 2.827 13.289 5.028l-11.845 27.785c-2.836-2.029-5.895-3.53-9.187-4.491-3.294-.964-6.96-1.448-11.007-1.448-10.934 0-18.783 4.392-23.54 13.172-4.757 8.78-7.134 23.525-7.134 44.231v63.346H535.69V124.74h33.006v23.052Z" style="fill:#c9c7c7;fill-rule:nonzero"/><path d="M394.087 196.576c0 14.925 3.719 26.856 11.16 35.788 7.445 8.934 17.241 13.4 29.39 13.4 12.452 0 22.094-4.161 28.929-12.485 6.832-8.324 10.254-20.151 10.254-35.482 0-15.227-3.572-27.131-10.71-35.711-7.138-8.577-16.934-12.866-29.384-12.866-12.455 0-22.172 4.163-29.161 12.488-6.988 8.326-10.478 19.947-10.478 34.868m-31.942 140.507V125.015h33.007v23.448c3.851-9.149 10.014-16.215 18.481-21.201 8.468-4.982 18.585-7.473 30.347-7.473 19.168 0 34.709 7.086 46.623 21.256 11.913 14.169 17.874 32.783 17.874 55.837 0 24.277-5.858 43.397-17.569 57.365-11.717 13.969-27.765 20.948-48.143 20.948-10.144 0-19.144-2.037-26.999-6.099-7.863-4.067-14.735-10.268-20.614-18.605v86.592h-33.007ZM213.431 181.677h62.103l-22.83-50.835c-1.32-3.246-2.691-6.971-4.11-11.183-1.422-4.211-2.843-8.905-4.263-14.078-1.221 4.872-2.515 9.411-3.886 13.623-1.371 4.211-2.766 8.089-4.185 11.638l-22.829 50.835Zm100.155 87.467-25.268-57.211h-88.284l-25.877 57.211h-38.008L244.025 37.548l107.767 231.596h-38.206Z" style="fill:#c9c7c7;fill-rule:nonzero"/></svg>