<?xml version="1.0" encoding="utf-8"?>
<!-- Generator: Adobe Illustrator 24.2.3, SVG Export Plug-In . SVG Version: 6.00 Build 0)  -->
<svg version="1.2" baseProfile="tiny" id="LaPlateforme" xmlns:serif="http://www.serif.com/"
	 xmlns="http://www.w3.org/2000/svg" xmlns:xlink="http://www.w3.org/1999/xlink" x="0px" y="0px" viewBox="0 0 512 512"
	 overflow="visible" xml:space="preserve">
<g id="Logo">
	<path fill="#FFFFFF" d="M127.3,170.7L127.3,170.7c-5.1,0-9.2,4.1-9.2,9.2c0,5.1,4.1,9.2,9.2,9.2c5.1,0,9.2-4.1,9.2-9.2
		C136.5,174.6,132.4,170.7,127.3,170.7z"/>
	<path fill="#FFFFFF" d="M154.1,170.7c-5.1,0.7-8.4,5.5-7.8,10.5c0.7,4.3,4.6,7.8,9.2,7.8l0,0h1.4c5.1-0.7,8.4-5.5,7.8-10.3
		C163.8,173.5,159.2,170,154.1,170.7z"/>
	<path fill="#FFFFFF" d="M185.7,170.7c-2.2-0.5-4.8-0.2-6.8,1.1s-3.5,3.5-4.1,5.7c-1.4,4.8,1.9,9.8,6.8,10.8
		c0.7,0.2,1.4,0.2,2.1,0.2c1.6,0,3.5-0.5,4.8-1.4c2.1-1.4,3.5-3.5,4.1-5.7c0.5-2.2,0.2-4.8-1.1-6.8
		C190.1,172.7,188,171.4,185.7,170.7z"/>
	<path fill="#FFFFFF" d="M419.8,169.1l-65,0.5c-5.5,0-10,4.6-10,10c0,2.7,1.1,5.2,3,7.1c1.9,2.1,4.1,3,6.8,3l65.2-0.5
		c5.5,0,10-4.6,10-10C429.7,173.7,425.4,169.1,419.8,169.1z"/>
	<path fill="#FFFFFF" d="M127.3,234.3c-5.1,0-9.2,4.1-9.2,9.2s4.1,9.2,9.2,9.2c5.1,0,9.2-4.1,9.2-9.2
		C136.5,238.2,132.4,234.3,127.3,234.3z"/>
	<path fill="#FFFFFF" d="M154.1,234.1c-5.1,0.7-8.4,5.5-7.8,10.3c0.7,4.6,4.6,7.8,9.2,7.8h1.4c5.1-0.7,8.4-5.5,7.8-10.3
		C163.8,236.6,159.2,233.3,154.1,234.1z"/>
	<path fill="#FFFFFF" d="M185.7,234.3c-2.2-0.5-4.8-0.2-6.8,1.1c-2,1.4-3.5,3.5-4.1,5.7c-1.4,4.8,1.9,9.8,6.8,10.8
		c0.7,0.2,1.4,0.2,2.1,0.2c1.6,0,3.5-0.5,4.8-1.4c2.1-1.4,3.5-3.5,4.1-5.7c0.5-2.2,0.2-4.8-1.1-6.8C190.1,236.2,188,235,185.7,234.3
		z"/>
	<path fill="#FFFFFF" d="M419.8,232.7l-65,0.5c-5.5,0-10,4.6-10,10c0,2.7,1.1,5.2,3,7.1c1.9,2.1,4.1,3,6.8,3l65.2-0.5
		c5.5,0,10-4.6,10-10C429.7,237.1,425.4,232.7,419.8,232.7z"/>
	<path fill="#FFFFFF" d="M127.3,298.4c-5.1,0-9.2,4.1-9.2,9.2s4.1,9.2,9.2,9.2c5.1,0,9.2-4.1,9.2-9.2
		C136.5,302.5,132.4,298.4,127.3,298.4z"/>
	<path fill="#FFFFFF" d="M160.8,300.2c-2.1-1.4-4.3-2.1-6.8-1.6c-2.2,0.2-4.6,1.6-6,3.7c-1.4,2.1-2.1,4.3-1.6,6.8
		c0.5,2.1,1.6,4.3,3.7,5.7l0,0c1.6,1.1,3.5,1.9,5.5,1.9h1.4c2.2-0.2,4.6-1.6,6-3.7c1.4-2.1,2.1-4.3,1.6-6.8
		C163.9,303.9,162.8,301.6,160.8,300.2z"/>
	<path fill="#FFFFFF" d="M185.7,298.4c-5.1-1.1-9.8,2.1-10.8,6.8c-0.5,2.2-0.2,4.8,1.1,6.8c1.1,2.1,3.2,3.5,5.7,4.1
		c0.7,0.2,1.4,0.2,2.1,0.2c1.6,0,3.5-0.5,4.8-1.4c2.1-1.4,3.5-3.5,4.1-5.7C193.7,304.6,190.6,299.5,185.7,298.4z"/>
	<path fill="#FFFFFF" d="M419.8,297.1l-65,0.5c-5.5,0-10,4.6-10,10c0,2.7,1.1,5.2,3,7.1c1.9,2.1,4.1,3,6.8,3l65.2-0.5
		c5.5,0,10-4.6,10-10C429.8,301.6,425.4,297.1,419.8,297.1z"/>
	<path fill="#FFFFFF" d="M502.8,388.1c-2.1-2.2-5.1-3.5-8.1-3.5h-0.2c-18.1,0-28.1,12.1-33.8,19.5c-0.7,0.7-1.1,1.4-1.6,1.9
		c-4.6,5.1-5.5,5.5-8.1,5.7c-3.2,0-3.8-0.7-9.2-7.1c-5.2-6.7-13.8-17-28.4-19.2l-0.2-32.7h40.9c3.5,0,6.4-1.6,8.7-4.3
		c2.1-2.2,3.5-6,3.5-9.4v-191c0-7.6-5.5-13.8-11.9-13.8h-360c-3.5,0-6.4,1.6-8.7,4.3c-2.1,2.2-3.5,6-3.5,9.4v191
		c0,7.6,5.5,13.8,11.9,13.8h39.5l0.2,34.6c-10.8,3.8-17.4,11.7-21.9,17.4c-0.7,0.7-1.1,1.1-1.6,1.6c-4.6,5.1-5.2,5.7-7.8,5.7
		c-3.2,0-3.8-0.5-9.2-7.1c-6.2-7.3-16-19.7-34.6-19.7c-6.7,0-11.9,6.2-11.9,13.8c0,7.6,5.5,13.8,11.9,13.8c7.8,0,11.9,5.1,16.7,11
		c6.2,7.6,12.8,15.7,27,15.7c12.8,0,20-8.1,24.9-13.5c0.2-0.2,0.5-0.7,0.9-0.9l1.4-1.4c5.5-6.8,9.4-10.8,16.5-11h0.2
		c7.8,0,11.9,5.1,16.7,11c6.2,7.6,12.8,15.7,27,15.7c12.8,0,20-8.1,24.9-13.5c0.2-0.2,0.5-0.7,0.9-0.9l1.4-1.4
		c5.5-6.8,9.4-10.8,16.5-11h0.2c7.8,0,11.9,5.1,16.7,11c6.2,7.6,12.8,15.7,27,15.7c12.8,0,20-8.1,24.9-13.5c0.2-0.2,0.5-0.7,0.9-0.9
		l1.4-1.4c5.5-6.8,9.4-10.8,16.5-11h0.2c7.3,0,11,4.1,16.7,11c6.2,7.6,12.8,15.7,26.8,15.7h0.2c12.6,0,19.7-8.1,24.7-13.5
		c0.2-0.2,0.5-0.7,0.9-0.9l1.4-1.4c5.5-6.8,9.4-10.8,16.5-11h0.2c7.3,0,11,4.1,16.7,11c6.2,7.6,12.8,15.7,27,15.7h0.2
		c12.8,0,19.7-8.1,24.7-13.5c0.2-0.2,0.5-0.7,0.9-0.9l1.4-1.4c4.8-6,9.2-11,16.7-11c6.8,0,11.9-6.2,11.9-13.5
		C507.1,395,505.7,390.9,502.8,388.1z M106.5,161.6h336.2v35.2H106.5V161.6z M106.5,225.2h336.2v35.2H106.5V225.2z M373.8,404.8
		c-0.9,0.2-1.4,0.7-1.9,1.4l0,0c-4.6,5.1-5.2,5.7-7.8,5.7c-3.2,0-3.8-0.5-9.2-7.1c-6.2-7.3-16-19.7-34.6-19.7l0,0
		c-18.1,0-28.1,12.1-33.8,19.5c-0.7,0.7-1.1,1.4-1.6,1.9c-4.6,5.1-5.2,5.7-7.8,5.7c-3.2,0-3.8-0.5-9.2-7.1
		c-6.2-7.3-16-19.7-34.6-19.7h-0.2c-18.1,0-28.1,12.1-33.8,19.5c-0.7,0.7-1.1,1.1-1.6,1.9c-4.6,5.1-5.2,5.7-7.8,5.7
		c-3.2,0-3.8-0.5-9.2-7.1c-4.8-5.7-11.4-14-22.7-17.9l-0.2-34.3h231.8l0.2,36.8C382.7,394,377.8,400,373.8,404.8z M106.5,325.2V289
		h336.2v36.2H106.5z"/>
	<path fill="#FFFFFF" d="M64,103.7c1.9,4.8,6.4,8.1,11.2,8.1c1.6,0,3-0.2,4.1-0.7h0.2c3-1.1,5.5-3.5,6.8-6.4c1.4-3,1.4-6.4,0.2-9.4
		L75.2,64.5c-1.1-3-3.5-5.5-6.4-6.8c-3-1.4-6.3-1.4-9.3-0.2s-5.5,3.5-6.8,6.4c-1.4,3-1.4,6.4-0.2,9.4L64,103.7z"/>
	<path fill="#FFFFFF" d="M59.4,157.2c-1.1-3-3.5-5.5-6.4-6.8c-3-1.4-6.4-1.4-9.4-0.2l-30.5,11.4c-3,1.1-5.5,3.5-6.8,6.4
		c-1.4,3-1.4,6.4-0.2,9.4c1.9,4.8,6.4,7.8,11.2,7.8c1.6,0,3-0.2,4.1-0.7l30.6-11.4C58.4,170.5,61.4,163.5,59.4,157.2z"/>
	<path fill="#FFFFFF" d="M12.7,123.1l26,11.7c1.6,0.7,3.2,0.9,5.1,0.9c4.8,0,9.2-2.7,11-7.1c1.4-3,1.4-6.4,0.2-9.4
		c-1.1-3-3.5-5.5-6.4-6.7l-26-11.7c-3-1.4-6.4-1.4-9.4-0.2c-3,1.1-5.5,3.5-6.7,6.4c-1.4,3-1.6,6.2-0.5,9.2
		C7.5,119.2,9.7,121.8,12.7,123.1z"/>
</g>
</svg>
