<svg xmlns="http://www.w3.org/2000/svg" xmlns:xlink="http://www.w3.org/1999/xlink" id="LaPlateforme" x="0" y="0" baseProfile="tiny" overflow="visible" version="1.2" viewBox="0 0 512 512" xml:space="preserve"><path fill="#369" d="M381.4,512H130.6C58.5,512,0,453.5,0,381.4V130.6C0,58.5,58.5,0,130.6,0h250.8C453.5,0,512,58.5,512,130.6	v250.8C512,453.5,453.5,512,381.4,512z"/><g id="Logo"><path fill="#F9F7F7" d="M138.4,175.3L138.4,175.3c-4.1,0-7.4,3.3-7.4,7.4s3.3,7.4,7.4,7.4c4.1,0,7.4-3.3,7.4-7.4 C145.8,178.4,142.5,175.3,138.4,175.3z"/><path fill="#F9F7F7" d="M160,175.3c-4.1,0.6-6.8,4.4-6.3,8.5c0.6,3.5,3.7,6.3,7.4,6.3l0,0h1.1c4.1-0.6,6.8-4.4,6.3-8.3 C167.8,177.5,164.1,174.7,160,175.3z"/><path fill="#F9F7F7" d="M185.5,175.3c-1.8-0.4-3.9-0.2-5.5,0.9s-2.8,2.8-3.3,4.6c-1.1,3.9,1.5,7.9,5.5,8.7c0.6,0.2,1.1,0.2,1.7,0.2 c1.3,0,2.8-0.4,3.9-1.1c1.7-1.1,2.8-2.8,3.3-4.6c0.4-1.8,0.2-3.9-0.9-5.5C189,176.9,187.3,175.8,185.5,175.3z"/><path fill="#F9F7F7" d="M374.3,174l-52.4,0.4c-4.4,0-8.1,3.7-8.1,8.1c0,2.2,0.9,4.2,2.4,5.7c1.5,1.7,3.3,2.4,5.5,2.4l52.6-0.4 c4.4,0,8.1-3.7,8.1-8.1C382.3,177.7,378.8,174,374.3,174z"/><path fill="#F9F7F7" d="M138.4,226.6c-4.1,0-7.4,3.3-7.4,7.4s3.3,7.4,7.4,7.4c4.1,0,7.4-3.3,7.4-7.4 C145.8,229.7,142.5,226.6,138.4,226.6z"/><path fill="#F9F7F7" d="M160,226.4c-4.1,0.6-6.8,4.4-6.3,8.3c0.6,3.7,3.7,6.3,7.4,6.3h1.1c4.1-0.6,6.8-4.4,6.3-8.3 C167.8,228.4,164.1,225.8,160,226.4z"/><path fill="#F9F7F7" d="M185.5,226.6c-1.8-0.4-3.9-0.2-5.5,0.9s-2.8,2.8-3.3,4.6c-1.1,3.9,1.5,7.9,5.5,8.7c0.6,0.2,1.1,0.2,1.7,0.2 c1.3,0,2.8-0.4,3.9-1.1c1.7-1.1,2.8-2.8,3.3-4.6c0.4-1.8,0.2-3.9-0.9-5.5C189,228.1,187.3,227.1,185.5,226.6z"/><path fill="#F9F7F7" d="M374.3,225.3l-52.4,0.4c-4.4,0-8.1,3.7-8.1,8.1c0,2.2,0.9,4.2,2.4,5.7c1.5,1.7,3.3,2.4,5.5,2.4l52.6-0.4 c4.4,0,8.1-3.7,8.1-8.1C382.3,228.8,378.8,225.3,374.3,225.3z"/><path fill="#F9F7F7" d="M138.4,278.3c-4.1,0-7.4,3.3-7.4,7.4s3.3,7.4,7.4,7.4c4.1,0,7.4-3.3,7.4-7.4 C145.8,281.6,142.5,278.3,138.4,278.3z"/><path fill="#F9F7F7" d="M165.4,279.7c-1.7-1.1-3.5-1.7-5.5-1.3c-1.8,0.2-3.7,1.3-4.8,3c-1.1,1.7-1.7,3.5-1.3,5.5 c0.4,1.7,1.3,3.5,3,4.6l0,0c1.3,0.9,2.8,1.5,4.4,1.5h1.1c1.8-0.2,3.7-1.3,4.8-3c1.1-1.7,1.7-3.5,1.3-5.5 C167.9,282.7,167,280.9,165.4,279.7z"/><path fill="#F9F7F7" d="M185.5,278.3c-4.1-0.9-7.9,1.7-8.7,5.5c-0.4,1.8-0.2,3.9,0.9,5.5c0.9,1.7,2.6,2.8,4.6,3.3 c0.6,0.2,1.1,0.2,1.7,0.2c1.3,0,2.8-0.4,3.9-1.1c1.7-1.1,2.8-2.8,3.3-4.6C191.9,283.3,189.4,279.2,185.5,278.3z"/><path fill="#F9F7F7" d="M374.3,277.2l-52.4,0.4c-4.4,0-8.1,3.7-8.1,8.1c0,2.2,0.9,4.2,2.4,5.7c1.5,1.7,3.3,2.4,5.5,2.4l52.6-0.4 c4.4,0,8.1-3.7,8.1-8.1S378.8,277.2,374.3,277.2z"/><path fill="#F9F7F7" d="M441.3,350.6c-1.7-1.8-4.1-2.8-6.5-2.8h-0.2c-14.6,0-22.7,9.8-27.3,15.7c-0.6,0.6-0.9,1.1-1.3,1.5 c-3.7,4.1-4.4,4.4-6.5,4.6c-2.6,0-3.1-0.6-7.4-5.7c-4.2-5.4-11.1-13.7-22.9-15.5l-0.2-26.4h33c2.8,0,5.2-1.3,7-3.5 c1.7-1.8,2.8-4.8,2.8-7.6V156.8c0-6.1-4.4-11.1-9.6-11.1H111.8c-2.8,0-5.2,1.3-7,3.5c-1.7,1.8-2.8,4.8-2.8,7.6v154.1 c0,6.1,4.4,11.1,9.6,11.1h31.9l0.2,27.9c-8.7,3.1-14,9.4-17.7,14c-0.6,0.6-0.9,0.9-1.3,1.3c-3.7,4.1-4.2,4.6-6.3,4.6 c-2.6,0-3.1-0.4-7.4-5.7c-5-5.9-12.9-15.9-27.9-15.9c-5.4,0-9.6,5-9.6,11.1s4.4,11.1,9.6,11.1c6.3,0,9.6,4.1,13.5,8.9 c5,6.1,10.3,12.7,21.8,12.7c10.3,0,16.1-6.5,20.1-10.9c0.2-0.2,0.4-0.6,0.7-0.7l1.1-1.1c4.4-5.5,7.6-8.7,13.3-8.9h0.2 c6.3,0,9.6,4.1,13.5,8.9c5,6.1,10.3,12.7,21.8,12.7c10.3,0,16.1-6.5,20.1-10.9c0.2-0.2,0.4-0.6,0.7-0.7l1.1-1.1 c4.4-5.5,7.6-8.7,13.3-8.9h0.2c6.3,0,9.6,4.1,13.5,8.9c5,6.1,10.3,12.7,21.8,12.7c10.3,0,16.1-6.5,20.1-10.9 c0.2-0.2,0.4-0.6,0.7-0.7l1.1-1.1c4.4-5.5,7.6-8.7,13.3-8.9h0.2c5.9,0,8.9,3.3,13.5,8.9c5,6.1,10.3,12.7,21.6,12.7h0.2 c10.2,0,15.9-6.5,19.9-10.9c0.2-0.2,0.4-0.6,0.7-0.7l1.1-1.1c4.4-5.5,7.6-8.7,13.3-8.9h0.2c5.9,0,8.9,3.3,13.5,8.9 c5,6.1,10.3,12.7,21.8,12.7h0.2c10.3,0,15.9-6.5,19.9-10.9c0.2-0.2,0.4-0.6,0.7-0.7l1.1-1.1c3.9-4.8,7.4-8.9,13.5-8.9 c5.5,0,9.6-5,9.6-10.9C444.7,356.2,443.6,352.9,441.3,350.6z M121.6,167.9h271.2v28.4H121.6V167.9z M121.6,219.2h271.2v28.4H121.6 V219.2z M337.2,364.1c-0.7,0.2-1.1,0.6-1.5,1.1l0,0c-3.7,4.1-4.2,4.6-6.3,4.6c-2.6,0-3.1-0.4-7.4-5.7c-5-5.9-12.9-15.9-27.9-15.9 l0,0c-14.6,0-22.7,9.8-27.3,15.7c-0.6,0.6-0.9,1.1-1.3,1.5c-3.7,4.1-4.2,4.6-6.3,4.6c-2.6,0-3.1-0.4-7.4-5.7 c-5-5.9-12.9-15.9-27.9-15.9h-0.2c-14.6,0-22.7,9.8-27.3,15.7c-0.6,0.6-0.9,0.9-1.3,1.5c-3.7,4.1-4.2,4.6-6.3,4.6 c-2.6,0-3.1-0.4-7.4-5.7c-3.9-4.6-9.2-11.3-18.3-14.4l-0.2-27.7h187l0.2,29.7C344.4,355.4,340.4,360.2,337.2,364.1z M121.6,299.9 v-29.2h271.2v29.2H121.6z"/><path fill="#F9F7F7" d="M87.3,121.2c1.5,3.9,5.2,6.5,9,6.5c1.3,0,2.4-0.2,3.3-0.6h0.2c2.4-0.9,4.4-2.8,5.5-5.2 c1.1-2.4,1.1-5.2,0.2-7.6l-9.2-24.7c-0.9-2.4-2.8-4.4-5.2-5.5C88.7,83,86,83,83.6,83.9c-2.4,0.9-4.4,2.8-5.5,5.2 c-1.1,2.4-1.1,5.2-0.2,7.6L87.3,121.2z"/><path fill="#F9F7F7" d="M83.6,164.4c-0.9-2.4-2.8-4.4-5.2-5.5c-2.4-1.1-5.2-1.1-7.6-0.2l-24.6,9.2c-2.4,0.9-4.4,2.8-5.5,5.2 c-1.1,2.4-1.1,5.2-0.2,7.6c1.5,3.9,5.2,6.3,9,6.3c1.3,0,2.4-0.2,3.3-0.6l24.7-9.2C82.8,175.1,85.2,169.5,83.6,164.4z"/><path fill="#F9F7F7" d="M45.9,136.9l21,9.4c1.3,0.6,2.6,0.7,4.1,0.7c3.9,0,7.4-2.2,8.9-5.7c1.1-2.4,1.1-5.2,0.2-7.6 c-0.9-2.4-2.8-4.4-5.2-5.4l-21-9.4c-2.4-1.1-5.2-1.1-7.6-0.2c-2.4,0.9-4.4,2.8-5.4,5.2c-1.1,2.4-1.3,5-0.4,7.4 C41.7,133.7,43.5,135.8,45.9,136.9z"/></g></svg>