<svg xmlns="http://www.w3.org/2000/svg" id="logo" width="24" height="24" class="laplateforme icon" viewBox="0 0 24 24"><path d="M6.16,8.63h0A.39.39,0,0,0,5.77,9a.4.4,0,1,0,.79,0A.39.39,0,0,0,6.16,8.63Z"/><path d="M7.33,8.63A.4.4,0,0,0,7,9.08a.41.41,0,0,0,.4.34h.06a.4.4,0,0,0-.12-.79Z"/><path d="M8.71,8.63a.38.38,0,0,0-.29,0,.43.43,0,0,0-.18.24.39.39,0,0,0,.3.48h.09a.39.39,0,0,0,.2-.06A.45.45,0,0,0,9,9.1a.4.4,0,0,0,0-.3A.49.49,0,0,0,8.71,8.63Z"/><path d="M18.94,8.56l-2.84,0a.43.43,0,0,0-.43.43.48.48,0,0,0,.12.31.38.38,0,0,0,.3.13l2.85,0a.44.44,0,0,0,0-.87Z"/><path d="M6.16,11.41a.39.39,0,0,0-.39.39.4.4,0,1,0,.79,0A.39.39,0,0,0,6.16,11.41Z"/><path d="M7.33,11.4a.4.4,0,0,0,.06.79h.06a.4.4,0,0,0,.33-.46A.39.39,0,0,0,7.33,11.4Z"/><path d="M8.71,11.41a.38.38,0,0,0-.29.05.4.4,0,0,0-.18.24.39.39,0,0,0,.3.48h.09a.39.39,0,0,0,.2-.06A.45.45,0,0,0,9,11.88a.4.4,0,0,0,0-.3A.44.44,0,0,0,8.71,11.41Z"/><path d="M18.94,11.34l-2.84,0a.43.43,0,0,0-.43.43.48.48,0,0,0,.12.31.38.38,0,0,0,.3.13l2.85,0a.44.44,0,0,0,.43-.44A.43.43,0,0,0,18.94,11.34Z"/><path d="M6.16,14.21a.4.4,0,1,0,.4.4A.4.4,0,0,0,6.16,14.21Z"/><path d="M7.62,14.29a.4.4,0,0,0-.3-.07.37.37,0,0,0-.26.16.4.4,0,0,0-.07.3.4.4,0,0,0,.16.25h0a.41.41,0,0,0,.24.08h.06a.37.37,0,0,0,.26-.16.44.44,0,0,0,.06-.3A.35.35,0,0,0,7.62,14.29Z"/><path d="M8.71,14.21a.4.4,0,0,0-.17.78h.09a.39.39,0,0,0,.2-.06A.45.45,0,0,0,9,14.69.41.41,0,0,0,8.71,14.21Z"/><path d="M18.94,14.15H16.1a.44.44,0,0,0-.43.44.48.48,0,0,0,.12.31.38.38,0,0,0,.3.13l2.85,0a.44.44,0,0,0,.43-.44A.43.43,0,0,0,18.94,14.15Z"/><path d="M22.57,18.13a.47.47,0,0,0-.35-.15h0a1.89,1.89,0,0,0-1.48.85l-.07.08c-.2.22-.24.24-.35.25s-.16,0-.39-.31A2,2,0,0,0,18.68,18V16.58h1.79a.49.49,0,0,0,.38-.19A.64.64,0,0,0,21,16V7.64A.58.58,0,0,0,20.46,7H4.72a.49.49,0,0,0-.38.19.64.64,0,0,0-.15.41V16a.58.58,0,0,0,.53.61H6.45v1.51a2.2,2.2,0,0,0-1,.76l-.07.07c-.2.22-.23.25-.34.25s-.16,0-.39-.31A2,2,0,0,0,3.19,18a.61.61,0,0,0,0,1.21c.33,0,.52.22.73.48a1.42,1.42,0,0,0,1.17.7,1.39,1.39,0,0,0,1.09-.6l0,0,.06-.06c.24-.29.41-.47.72-.48H7c.34,0,.53.22.73.48a1.45,1.45,0,0,0,1.18.7,1.39,1.39,0,0,0,1.09-.6l0,0,.06-.06c.24-.29.4-.47.72-.48h0c.34,0,.52.22.73.48a1.45,1.45,0,0,0,1.18.7,1.41,1.41,0,0,0,1.09-.6l0,0,.06-.06c.23-.29.4-.47.72-.48h0c.31,0,.48.18.73.48a1.43,1.43,0,0,0,1.17.7h0a1.36,1.36,0,0,0,1.07-.6l0,0,.06-.06c.24-.29.41-.47.72-.48h0c.32,0,.49.18.74.48a1.42,1.42,0,0,0,1.17.7h0a1.37,1.37,0,0,0,1.08-.6l0,0,.06-.06c.21-.25.4-.48.73-.48a.56.56,0,0,0,.53-.59A1.74,1.74,0,0,0,22.57,18.13ZM5.25,8.23H19.94V9.77H5.25Zm0,2.78H19.94v1.54H5.25Zm11.68,7.85a.12.12,0,0,0-.08.06h0c-.19.22-.22.25-.33.25s-.17,0-.4-.31A2,2,0,0,0,14.61,18h0a1.91,1.91,0,0,0-1.49.85l-.06.08c-.2.22-.23.25-.34.25s-.17,0-.4-.31A1.93,1.93,0,0,0,10.8,18h0a1.88,1.88,0,0,0-1.48.85l-.07.08c-.2.22-.23.25-.34.25s-.17,0-.39-.31a2.33,2.33,0,0,0-1-.78V16.6H17.63v1.61A2.51,2.51,0,0,0,16.93,18.86ZM5.25,15.38V13.8H19.94v1.58Z"/><path d="M3.39,5.7a.54.54,0,0,0,.5.35.48.48,0,0,0,.18,0h0a.56.56,0,0,0,.29-.28.53.53,0,0,0,0-.41L3.88,4a.55.55,0,0,0-.28-.3.51.51,0,0,0-.4,0A.55.55,0,0,0,2.9,4a.51.51,0,0,0,0,.4Z"/><path d="M3.19,8a.54.54,0,0,0-.69-.3l-1.32.5a.55.55,0,0,0-.3.28.51.51,0,0,0,0,.4.53.53,0,0,0,.5.34.43.43,0,0,0,.17,0l1.34-.5A.55.55,0,0,0,3.19,8Z"/><path d="M1.15,6.55l1.14.51a.49.49,0,0,0,.21,0A.52.52,0,0,0,3,6.39a.46.46,0,0,0-.28-.28L1.58,5.59a.5.5,0,0,0-.4,0,.5.5,0,0,0-.29.28.48.48,0,0,0,0,.39A.55.55,0,0,0,1.15,6.55Z"/></svg>