<svg xmlns="http://www.w3.org/2000/svg" id="laplateformeLogoname" viewBox="0 0 240 60" width="240" height="60"><path d="M26.1 39.5h-7V22l2.7-.5v-3H11.5v3l2.7.5v17.8l-2.7.5v3h18.7v-7h-3.8zM47.2 39.4V31c0-2.1-.7-3.7-2.1-4.8-1.4-1.1-3.3-1.7-5.6-1.7-1.4 0-2.7.2-3.8.6-1.2.4-2.2.9-3.1 1.6v4.1h3.8l.3-2c.3-.2.6-.3 1.1-.4.4-.1.9-.2 1.5-.2 1 0 1.8.2 2.3.7.5.5.8 1.2.8 2.1v1.8h-2.5c-2.7 0-4.7.5-6.1 1.4-1.4.9-2.1 2.3-2.1 4 0 1.7.5 3 1.6 4 1 1 2.5 1.5 4.3 1.5 1.1 0 2.1-.2 2.9-.6.8-.4 1.6-1 2.1-1.7 0 .3.1.7.2 1 .1.3.2.6.4.9H49v-3l-1.5-.2c-.2-.2-.3-.5-.3-.7zm-5.1-1.1c-.4.5-.8.9-1.4 1.2-.6.3-1.3.5-2.1.5-.7 0-1.3-.2-1.7-.5-.4-.4-.6-.8-.6-1.5s.3-1.3.8-1.8 1.3-.8 2.4-.8H42v2.9zM68.9 18.5H57.1v3l2.6.5v17.7l-2.6.5v3h10.3v-3l-2.7-.5v-5.5h4.2c2.8 0 5-.7 6.7-2.1 1.7-1.4 2.5-3.3 2.5-5.7 0-2.4-.8-4.2-2.5-5.7-1.6-1.5-3.9-2.2-6.7-2.2zm3.2 10.8c-.7.8-1.7 1.1-3.1 1.1h-4.2v-8.1H69c1.4 0 2.4.4 3.1 1.2.7.8 1.1 1.7 1.1 2.9-.1 1.2-.4 2.2-1.1 2.9zM86 16.7h-7.6v3l2.7.5v19.6l-2.4.5v3h9.7v-3l-2.4-.5zM105.1 39.4V31c0-2.1-.7-3.7-2.1-4.8-1.4-1.1-3.3-1.7-5.6-1.7-1.4 0-2.7.2-3.8.6-1.2.4-2.2.9-3.1 1.6v4.1h3.8l.3-2c.3-.2.6-.3 1.1-.4.4-.1.9-.2 1.5-.2 1 0 1.8.2 2.3.7.5.5.8 1.2.8 2.1v1.8h-2.5c-2.7 0-4.7.5-6.1 1.4-1.4.9-2.1 2.3-2.1 4 0 1.7.5 3 1.6 4 1 1 2.5 1.5 4.3 1.5 1.1 0 2.1-.2 2.9-.6.8-.4 1.6-1 2.1-1.7 0 .3.1.7.2 1 .1.3.2.6.4.9h5.8v-3l-1.5-.2c-.2-.2-.3-.5-.3-.7zm-5-1.1c-.4.5-.8.9-1.4 1.2-.7.3-1.3.5-2.1.5s-1.3-.2-1.7-.5c-.4-.4-.6-.8-.6-1.5s.3-1.3.8-1.8 1.3-.8 2.4-.8h2.5v2.9zM116 39.6h-.9c-.5 0-.9-.1-1.2-.4-.3-.3-.4-.8-.4-1.5v-9.4h3.2v-3.5h-3.2v-4.5h-5v4.5h-2.7v3.5h2.7v9.4c0 2 .4 3.5 1.4 4.5.9.9 2.3 1.4 4 1.4.7 0 1.3 0 1.8-.1s1.1-.2 1.7-.4l-.4-3.6c-.5.1-.7.1-1 .1zM126.3 24.6c-2.5 0-4.6.8-6.1 2.6-1.5 1.7-2.3 4-2.3 6.7v.7c0 2.6.8 4.8 2.4 6.5 1.6 1.7 3.7 2.5 6.4 2.5 1.5 0 2.8-.2 4.1-.5 1.2-.4 2.2-.9 2.9-1.5l-1.3-3.1c-.8.4-1.7.8-2.4 1-.7.2-1.6.3-2.7.3-1.3 0-2.2-.4-2.9-1.2-.7-.8-1.1-1.8-1.2-3v-.1h11v-2.7c0-2.5-.7-4.6-2.1-6.1-1.4-1.3-3.3-2.1-5.8-2.1zm2.9 7.7h-6.1v-.1c.1-1.2.4-2.1 1-2.8.5-.7 1.3-1.1 2.2-1.1 1 0 1.7.3 2.2.9.5.6.8 1.5.8 2.5v.6zM143.8 20.9c.4-.4 1-.7 1.8-.7h.9c.3 0 .5.1.8.1l.4-3.7c-.5-.1-1-.2-1.4-.3-.4 0-.9-.1-1.3-.1-2.2 0-3.8.6-5 1.7-1.2 1.1-1.8 2.7-1.8 4.8v2.1h-2.7v3.5h2.7v11.5l-2.4.5v2.9h9.8v-3l-2.4-.5V28.3h3.7v-3.5h-3.7v-2.1c0-.7.2-1.4.6-1.8zM156.4 24.5c-2.7 0-4.9.9-6.4 2.6-1.6 1.7-2.3 4-2.3 6.7v.4c0 2.8.8 5 2.3 6.8 1.6 1.7 3.7 2.6 6.4 2.6s4.8-.9 6.3-2.6c1.6-1.7 2.3-4 2.3-6.8v-.4c0-2.7-.8-5-2.3-6.7-1.4-1.7-3.6-2.6-6.3-2.6zm3.7 9.8c0 1.7-.3 3-.9 4-.6 1-1.5 1.5-2.8 1.5-1.3 0-2.3-.5-2.9-1.5-.6-1-.9-2.4-.9-4.1V34c0-1.7.3-3 .9-4 .6-1 1.5-1.6 2.8-1.6s2.3.5 2.9 1.6c.6 1.1.9 2.4.9 4v.3zM178 24.6c-.9 0-1.7.3-2.4.8s-1.2 1.3-1.7 2.2l-.2-2.7h-7.3v3l2.6.5v11.4l-2.4.5v3h9.7v-3l-2.4-.5v-9c.2-.5.6-.9 1.1-1.2.4-.3 1.1-.4 1.8-.4h2.1l.5-4.5c-.2 0-.4-.1-.7-.1h-.7zM210.1 32.1c0-2.5-.5-4.5-1.6-5.7-1-1.3-2.5-1.9-4.3-1.9-1.3 0-2.3.3-3.2.8-.9.6-1.7 1.3-2.2 2.3-.4-1.1-1.1-1.8-1.9-2.4-.8-.5-1.9-.8-3-.8-1.2 0-2.2.2-3.1.7-.9.5-1.7 1.2-2.2 2.1l-.2-2.5H181v3l2.7.5v11.4l-2.4.5v3h9.6v-3l-2.1-.5v-10c.3-.4.8-.8 1.3-1.1.5-.3 1.1-.4 1.7-.4.9 0 1.6.3 2.1.8.4.6.7 1.5.7 2.9v7.6l-2 .5v3h9v-3l-2-.5v-9.6c.3-.5.7-1 1.3-1.3.5-.3 1.1-.4 1.8-.4.9 0 1.6.3 2 .8.4.5.7 1.5.7 2.9v7.7l-2.1.5v3h9.5v-3l-2.4-.5v-7.4zM228.5 35.6v-2.7c0-2.5-.7-4.6-2.1-6.1-1.4-1.5-3.3-2.2-5.8-2.2s-4.6.8-6.1 2.6c-1.5 1.7-2.3 4-2.3 6.7v.7c0 2.6.8 4.8 2.4 6.5 1.6 1.7 3.7 2.5 6.4 2.5 1.5 0 2.8-.2 4.1-.5 1.2-.4 2.2-.9 2.9-1.5l-1.3-3.1c-.8.4-1.7.8-2.4 1-.7.2-1.6.3-2.7.3-1.3 0-2.2-.4-2.9-1.2-.7-.8-1.1-1.8-1.2-3v-.1h11zm-11.1-3.4c.1-1.2.4-2.1 1-2.8.5-.7 1.3-1.1 2.2-1.1 1 0 1.7.3 2.2.9.5.6.8 1.5.8 2.5v.4l-6.2.1z"/></svg>
